<svg width="32" height="32" viewBox="0 0 32 32" fill="none" xmlns="http://www.w3.org/2000/svg">
  <defs>
    <linearGradient id="primaryGradient32" x1="0%" y1="0%" x2="100%" y2="100%">
      <stop offset="0%" stop-color="#0EA5E9" />
      <stop offset="30%" stop-color="#3B82F6" />
      <stop offset="70%" stop-color="#6366F1" />
      <stop offset="100%" stop-color="#8B5CF6" />
    </linearGradient>
    <linearGradient id="accentGradient32" x1="0%" y1="0%" x2="100%" y2="100%">
      <stop offset="0%" stop-color="#06B6D4" />
      <stop offset="50%" stop-color="#0EA5E9" />
      <stop offset="100%" stop-color="#3B82F6" />
    </linearGradient>
    <linearGradient id="circuitGradient32" x1="0%" y1="0%" x2="100%" y2="100%">
      <stop offset="0%" stop-color="#10B981" />
      <stop offset="50%" stop-color="#06B6D4" />
      <stop offset="100%" stop-color="#0EA5E9" />
    </linearGradient>
  </defs>
  
  <!-- Background circle -->
  <circle cx="16" cy="16" r="15" fill="url(#primaryGradient32)" opacity="0.95"/>
  
  <!-- Circuit board pattern -->
  <g stroke="url(#circuitGradient32)" stroke-width="1.2" fill="none" opacity="0.8">
    <!-- Horizontal lines -->
    <path d="M3 8 L12 8 L12 12 L20 12 L20 8 L29 8"/>
    <path d="M3 16 L8 16 L8 20 L24 20 L24 16 L29 16"/>
    <path d="M3 24 L12 24 L12 20 L20 20 L20 24 L29 24"/>
    
    <!-- Vertical lines -->
    <path d="M8 3 L8 12 L12 12 L12 20 L8 20 L8 29"/>
    <path d="M24 3 L24 12 L20 12 L20 20 L24 20 L24 29"/>
  </g>
  
  <!-- Circuit connection points -->
  <g fill="url(#accentGradient32)">
    <circle cx="8" cy="8" r="1.2"/>
    <circle cx="12" cy="12" r="1.2"/>
    <circle cx="20" cy="12" r="1.2"/>
    <circle cx="24" cy="8" r="1.2"/>
    <circle cx="8" cy="20" r="1.2"/>
    <circle cx="24" cy="20" r="1.2"/>
    <circle cx="12" cy="24" r="1.2"/>
    <circle cx="20" cy="24" r="1.2"/>
  </g>
  
  <!-- Central processor -->
  <rect x="11" y="11" width="10" height="10" rx="1.5" fill="url(#primaryGradient32)" stroke="url(#accentGradient32)" stroke-width="1"/>
  
  <!-- Processor pins -->
  <g fill="url(#circuitGradient32)">
    <rect x="9.5" y="13.5" width="1.5" height="1"/>
    <rect x="9.5" y="15.5" width="1.5" height="1"/>
    <rect x="9.5" y="17.5" width="1.5" height="1"/>
    <rect x="21" y="13.5" width="1.5" height="1"/>
    <rect x="21" y="15.5" width="1.5" height="1"/>
    <rect x="21" y="17.5" width="1.5" height="1"/>
    <rect x="13.5" y="9.5" width="1" height="1.5"/>
    <rect x="15.5" y="9.5" width="1" height="1.5"/>
    <rect x="17.5" y="9.5" width="1" height="1.5"/>
    <rect x="13.5" y="21" width="1" height="1.5"/>
    <rect x="15.5" y="21" width="1" height="1.5"/>
    <rect x="17.5" y="21" width="1" height="1.5"/>
  </g>
  
  <!-- Central core -->
  <circle cx="16" cy="16" r="2.5" fill="url(#circuitGradient32)"/>
  <circle cx="16" cy="16" r="1.5" fill="#FFFFFF" opacity="0.95"/>
  
  <!-- "A" for AzaniaDigital -->
  <path d="M14 13.5 L16 11 L18 13.5 M14.8 12.5 L17.2 12.5" stroke="#1E293B" stroke-width="1" fill="none" stroke-linecap="round" stroke-linejoin="round"/>
</svg>
