<svg width="16" height="16" viewBox="0 0 16 16" fill="none" xmlns="http://www.w3.org/2000/svg">
  <defs>
    <linearGradient id="primaryGradient16" x1="0%" y1="0%" x2="100%" y2="100%">
      <stop offset="0%" stop-color="#0EA5E9" />
      <stop offset="50%" stop-color="#3B82F6" />
      <stop offset="100%" stop-color="#6366F1" />
    </linearGradient>
    <linearGradient id="accentGradient16" x1="0%" y1="0%" x2="100%" y2="100%">
      <stop offset="0%" stop-color="#06B6D4" />
      <stop offset="100%" stop-color="#0EA5E9" />
    </linearGradient>
  </defs>
  
  <!-- Background circle -->
  <circle cx="8" cy="8" r="7.5" fill="url(#primaryGradient16)"/>
  
  <!-- Simplified circuit pattern -->
  <g stroke="url(#accentGradient16)" stroke-width="0.8" fill="none" opacity="0.7">
    <path d="M2 4 L6 4 L6 6 L10 6 L10 4 L14 4"/>
    <path d="M2 8 L4 8 L4 10 L12 10 L12 8 L14 8"/>
    <path d="M2 12 L6 12 L6 10 L10 10 L10 12 L14 12"/>
  </g>
  
  <!-- Circuit nodes -->
  <g fill="url(#accentGradient16)">
    <circle cx="4" cy="4" r="0.6"/>
    <circle cx="6" cy="6" r="0.6"/>
    <circle cx="10" cy="6" r="0.6"/>
    <circle cx="12" cy="4" r="0.6"/>
    <circle cx="4" cy="10" r="0.6"/>
    <circle cx="12" cy="10" r="0.6"/>
  </g>
  
  <!-- Central chip -->
  <rect x="6" y="6" width="4" height="4" rx="0.5" fill="url(#primaryGradient16)" stroke="url(#accentGradient16)" stroke-width="0.4"/>
  
  <!-- Central core -->
  <circle cx="8" cy="8" r="1" fill="url(#accentGradient16)"/>
  <circle cx="8" cy="8" r="0.5" fill="#FFFFFF"/>
</svg>
