<svg width="32" height="32" viewBox="0 0 32 32" fill="none" xmlns="http://www.w3.org/2000/svg">
  <defs>
    <linearGradient id="primaryGradient" x1="0%" y1="0%" x2="100%" y2="100%">
      <stop offset="0%" stop-color="#0EA5E9" />
      <stop offset="30%" stop-color="#3B82F6" />
      <stop offset="70%" stop-color="#6366F1" />
      <stop offset="100%" stop-color="#8B5CF6" />
    </linearGradient>
    <linearGradient id="accentGradient" x1="0%" y1="0%" x2="100%" y2="100%">
      <stop offset="0%" stop-color="#06B6D4" />
      <stop offset="50%" stop-color="#0EA5E9" />
      <stop offset="100%" stop-color="#3B82F6" />
    </linearGradient>
    <linearGradient id="circuitGradient" x1="0%" y1="0%" x2="100%" y2="100%">
      <stop offset="0%" stop-color="#10B981" />
      <stop offset="50%" stop-color="#06B6D4" />
      <stop offset="100%" stop-color="#0EA5E9" />
    </linearGradient>
  </defs>
  
  <!-- Background circle -->
  <circle cx="16" cy="16" r="15" fill="url(#primaryGradient)" opacity="0.9"/>
  
  <!-- Circuit board pattern -->
  <g stroke="url(#circuitGradient)" stroke-width="1.2" fill="none" opacity="0.8">
    <!-- Horizontal circuit lines -->
    <path d="M4 8 L12 8 L12 12 L20 12 L20 8 L28 8"/>
    <path d="M4 16 L8 16 L8 20 L24 20 L24 16 L28 16"/>
    <path d="M4 24 L12 24 L12 20 L20 20 L20 24 L28 24"/>
    
    <!-- Vertical circuit lines -->
    <path d="M8 4 L8 12 L12 12 L12 20 L8 20 L8 28"/>
    <path d="M24 4 L24 12 L20 12 L20 20 L24 20 L24 28"/>
  </g>
  
  <!-- Circuit nodes/connection points -->
  <g fill="url(#accentGradient)">
    <circle cx="8" cy="8" r="1.2"/>
    <circle cx="12" cy="12" r="1.2"/>
    <circle cx="20" cy="12" r="1.2"/>
    <circle cx="24" cy="8" r="1.2"/>
    <circle cx="8" cy="20" r="1.2"/>
    <circle cx="24" cy="20" r="1.2"/>
    <circle cx="12" cy="24" r="1.2"/>
    <circle cx="20" cy="24" r="1.2"/>
  </g>
  
  <!-- Central processor/chip -->
  <rect x="12" y="12" width="8" height="8" rx="1" fill="url(#primaryGradient)" stroke="url(#accentGradient)" stroke-width="0.8"/>
  
  <!-- Chip pins -->
  <g fill="url(#circuitGradient)">
    <rect x="10.5" y="14" width="1.5" height="0.8"/>
    <rect x="10.5" y="16" width="1.5" height="0.8"/>
    <rect x="10.5" y="18" width="1.5" height="0.8"/>
    <rect x="20" y="14" width="1.5" height="0.8"/>
    <rect x="20" y="16" width="1.5" height="0.8"/>
    <rect x="20" y="18" width="1.5" height="0.8"/>
    <rect x="14" y="10.5" width="0.8" height="1.5"/>
    <rect x="16" y="10.5" width="0.8" height="1.5"/>
    <rect x="18" y="10.5" width="0.8" height="1.5"/>
    <rect x="14" y="20" width="0.8" height="1.5"/>
    <rect x="16" y="20" width="0.8" height="1.5"/>
    <rect x="18" y="20" width="0.8" height="1.5"/>
  </g>
  
  <!-- Central core -->
  <circle cx="16" cy="16" r="2" fill="url(#circuitGradient)"/>
  <circle cx="16" cy="16" r="1" fill="#FFFFFF" opacity="0.9"/>
  
  <!-- Letter "A" for Azania -->
  <path d="M14.5 13.5 L16 11.5 L17.5 13.5 M15 12.5 L17 12.5" stroke="#FFFFFF" stroke-width="0.8" fill="none" stroke-linecap="round"/>
</svg>
